<?xml version="1.0" standalone="no"?><!DOCTYPE svg PUBLIC "-//W3C//DTD SVG 1.1//EN" "http://www.w3.org/Graphics/SVG/1.1/DTD/svg11.dtd"><svg t="1492832849607" class="icon" style="" viewBox="0 0 1024 1024" version="1.1" xmlns="http://www.w3.org/2000/svg" p-id="3026" xmlns:xlink="http://www.w3.org/1999/xlink" width="32" height="32"><defs><style type="text/css"></style></defs><path d="M511.999 880.914c0-114.626 92.922-207.548 207.548-207.548 0.002 114.624-92.922 207.548-207.548 207.548zM508.203 785.122H512.001c0-114.626-92.924-207.548-207.548-207.548v3.798c-0.002 112.528 91.222 203.75 203.75 203.75z" fill="#36C9A3" p-id="3027"></path><path d="M416.209 82.648l95.79-63.86 95.792 63.86M543.931 82.648h-159.654v175.62" fill="#FA004B" p-id="3028"></path><path d="M511.999 385.99c-70.538 0-127.722-57.182-127.722-127.722v-175.62h255.446v175.618c0 70.54-57.184 127.724-127.724 127.724z" fill="#FA004B" p-id="3029"></path><path d="M527.613 337.76v-31.264c18.758 0 32.616-14.08 32.616-32.838h31.264c0.002 35.432-28.446 64.102-63.88 64.102z" fill="#FFFFFF" p-id="3030"></path><path d="M719.549 657.732c-81.824 0-153.49 44.27-192.344 110.108a218.066 218.066 0 0 0-1.678-16.764v-123.09h18.758v-31.264h-18.758v-66.698h18.758V498.76h-18.758v-52.714l21.862 29.148 25.012-18.758-27.66-36.88h32.894v-31.264h-5.374c49.014-22.808 83.092-72.498 83.092-130.026V67.016h-42.83L511.999 0l-100.522 67.016h-42.83v191.252c0 57.528 34.078 107.218 83.092 130.026h-5.41v31.264h32.932l-27.66 36.88 25.012 18.758 17.654-23.54v95.042h-14.59v31.264h14.59v87.19c-38.816-61.938-107.682-103.212-186.016-103.212h-19.43v19.43c0 116.284 90.948 211.712 205.446 218.926v34.032h-14.59v31.264h14.59v112.552h-14.59v31.264h14.59v14.59h31.264v-79.202h18.758v-31.264h-18.758v-17.41c116.786-7.018 209.652-104.242 209.652-222.76v-15.632h-15.632v0.002z m-249.106 107.942c-81.816-16.738-144.466-86.752-149.968-172.076 85.324 5.502 155.336 68.152 172.076 149.968l-65.29-65.29-22.106 22.108 65.288 65.29z m41.556-728.1l44.232 29.488a192.342 192.342 0 0 0-12.302 0.626v-0.672h-76.096l44.166-29.442zM399.909 98.28h55.322a192.82 192.82 0 0 0-55.322 55.322V98.28z m112.09 272.076c-61.808 0-112.09-50.284-112.09-112.088 0-88.218 71.77-159.988 159.986-159.988h64.194v159.988c0.002 61.804-50.282 112.088-112.09 112.088z m42.496 490.17l64.35-64.35-22.106-22.108-64.402 64.402c7.876-35.052 25.484-67.236 51.506-93.26 32.374-32.376 74.28-51.76 119.386-55.532-7.1 83.916-68.444 152.622-148.734 170.848z" fill="#232323" p-id="3031"></path></svg>